<svg width="125" height="24" viewBox="0 0 125 24" fill="none" xmlns="http://www.w3.org/2000/svg">
<g clip-path="url(#clip0)">
<path d="M30.3064 17.743V0.879395H33.9825V17.4795C33.9825 19.0115 34.7184 19.8266 36.1885 19.8266C36.6453 19.8223 37.0959 19.7221 37.5112 19.5324L37.6879 22.4648C36.9813 22.7224 36.2342 22.8516 35.4819 22.8463C32.219 22.8463 30.3064 20.9986 30.3064 17.743Z" fill="#424242"/>
<path d="M39.688 2.19392C39.688 0.968261 40.6881 -0.00460815 42.04 -0.00460815C43.3918 -0.00460815 44.3934 0.903914 44.3934 2.1066C44.3934 3.39661 43.4225 4.39399 42.04 4.39399C40.685 4.39858 39.688 3.43031 39.688 2.19392ZM40.1873 6.97554H43.8634V22.641H40.1873V6.97554Z" fill="#424242"/>
<path d="M64.1553 13.6677V22.641H60.4791V14.1441C60.4791 11.3573 59.0965 10.0075 56.7446 10.0075C54.1269 10.0075 52.3602 11.584 52.3602 14.7233V22.641H48.6856V6.98014H52.1866V9.00402C53.391 7.56693 55.3036 6.80396 57.5972 6.80396C61.3609 6.80396 64.1553 8.94427 64.1553 13.6677Z" fill="#424242"/>
<path d="M75.2498 15.926L72.5138 18.506V22.6426H68.8315V0.887085H72.5061V14.0262L80.1242 6.98782H84.5347L77.9766 13.5574L85.1522 22.6487H80.6818L75.2498 15.926Z" fill="#424242"/>
<path d="M88.3875 18.8583V0.879395H89.3568V18.6821C89.3568 20.7351 90.2693 21.8796 92.2096 21.8796C92.712 21.8849 93.2109 21.7949 93.6797 21.6145L93.7688 22.4357C93.2494 22.6245 92.701 22.7219 92.1481 22.7238C89.681 22.7238 88.3875 21.2039 88.3875 18.8583Z" fill="#424242"/>
<path d="M96.4157 2.50035C96.4096 2.30759 96.4613 2.1174 96.5643 1.95415C96.6672 1.79091 96.8167 1.66204 96.9936 1.58408C97.1705 1.50612 97.3667 1.48261 97.557 1.51656C97.7474 1.55051 97.9232 1.64038 98.0621 1.77465C98.2009 1.90892 98.2963 2.08147 98.3362 2.27019C98.376 2.45891 98.3584 2.65519 98.2857 2.83389C98.213 3.01258 98.0884 3.16555 97.9279 3.27318C97.7675 3.3808 97.5784 3.43819 97.3851 3.43798C97.1336 3.43581 96.8927 3.33722 96.7122 3.16264C96.5317 2.98806 96.4256 2.75091 96.4157 2.50035ZM96.9104 7.41985H97.8813V22.641H96.9104V7.41985Z" fill="#424242"/>
<path d="M102.061 20.7061L102.531 19.94C103.679 20.9665 105.737 21.8766 108.119 21.8766C111.56 21.8766 112.942 20.585 112.942 18.7082C112.942 13.899 102.62 17.3002 102.62 11.3542C102.62 9.18482 104.384 7.30649 108.208 7.30649C110.09 7.30649 112.148 7.91932 113.325 8.86155L112.824 9.62759C111.595 8.65931 109.854 8.1905 108.178 8.1905C105.002 8.1905 103.619 9.56937 103.619 11.3282C103.619 16.2845 113.912 12.9415 113.912 18.7189C113.912 21.0952 111.941 22.7376 108.088 22.7376C105.59 22.7238 103.238 21.8796 102.061 20.7061Z" fill="#424242"/>
<path d="M124.998 21.6743C124.264 22.3775 123.058 22.7299 121.94 22.7299C119.411 22.7299 118.059 21.1978 118.059 18.8292V4.07687H119.032V7.41987H124.061V8.27017H119.032V18.6883C119.032 20.7413 120.061 21.8857 122.032 21.8857C122.972 21.8857 123.885 21.5625 124.502 20.9757L124.998 21.6743Z" fill="#424242"/>
<path d="M6.01427 1.6424H11.2143V12.8266H0V7.64048C0 6.04969 0.633644 4.52405 1.76154 3.39919C2.88943 2.27433 4.41919 1.6424 6.01427 1.6424Z" fill="#E22A78"/>
<path d="M11.2082 12.8204H0V23.9985H11.2082V12.8204Z" fill="#A5175B"/>
<path d="M11.2097 24V12.8158H22.4241V18.0004C22.4241 19.5912 21.7905 21.1168 20.6626 22.2417C19.5347 23.3665 18.0049 23.9985 16.4098 23.9985H11.2097V24Z" fill="#E22A78"/>
</g>
<defs>
<clipPath id="clip0">
<rect width="125" height="24" fill="white"/>
</clipPath>
</defs>
</svg>
